<svg width="379" height="379" viewBox="0 0 379 379" fill="none" xmlns="http://www.w3.org/2000/svg">
<g clip-path="url(#clip0)">
<path d="M140.956 213.66C140.106 213.66 139.744 213.92 139.478 214.202C137.669 216.116 137.468 221.92 137.666 228.041L144.007 224.132C142.884 214.501 140.976 213.668 140.956 213.66Z" fill="#F49600"/>
<path d="M153.707 85.2408C151.301 85.5375 148.633 86.3899 146.818 87.0522C144.82 87.7823 139.513 89.7206 137.79 91.9241C137.337 92.504 137.117 93.8733 137.304 94.3378C137.91 94.3953 139.466 93.7344 140.152 93.4426C140.592 93.2549 141.001 93.0823 141.355 92.9555C144.463 91.8382 147.578 90.4942 150.59 89.1952C152.428 88.4023 154.265 87.6097 156.119 86.8573C156.585 86.6684 157.287 86.3838 157.478 86.1154C157.528 86.0454 157.543 85.9054 157.511 85.8266C157.254 85.2169 155.764 84.9879 153.707 85.2408Z" fill="#48A146"/>
<path d="M174.417 139.128C174.23 139.052 174.138 139.048 174.12 139.048C174.119 139.048 174.118 139.048 174.117 139.048C174.11 139.064 172.926 139.784 172.613 145.905C172.531 147.516 172.437 149.049 172.346 150.531C172.038 155.578 171.574 163.178 172.73 164.378C172.748 164.37 172.798 164.367 172.869 164.353C174.954 163.962 175.425 160.814 175.531 159.479C175.562 159.098 175.588 158.716 175.611 158.334C175.771 155.748 175.79 153.082 175.809 150.502C175.822 148.874 175.834 147.246 175.879 145.621L175.885 145.394C175.945 143.297 176.043 139.787 174.417 139.128Z" fill="#48A146"/>
<path d="M208.45 120.636C211.27 121.339 214.003 121.352 216.348 120.676C221.276 119.255 224.981 114.315 224.966 109.186C224.954 104.749 222.011 100.279 217.808 98.3146C214.07 96.566 210.249 98.03 208.305 99.0579C203.721 101.484 200.453 106.171 200.359 110.456C200.247 115.464 203.348 119.366 208.45 120.636ZM215.169 118.687C214.943 119.343 213.788 119.806 213.16 119.786C212.716 119.771 212.265 119.556 212.037 119.174C211.809 118.793 211.855 118.246 212.193 117.957C212.542 117.658 213.058 117.696 213.515 117.75C214.053 117.815 215.463 117.828 215.169 118.687ZM211.628 102.953C211.848 102.58 212.726 101.744 213.237 102.034C213.81 102.358 213.029 103.49 212.737 103.813C212.501 104.073 212.142 104.303 211.815 104.173C211.597 104.087 211.461 103.854 211.443 103.62C211.425 103.387 211.508 103.155 211.628 102.953Z" fill="#E53722"/>
<path d="M210.189 148.211C210.195 148.222 210.199 148.238 210.206 148.247C210.246 148.314 210.276 148.284 210.221 148.231C210.212 148.222 210.2 148.219 210.189 148.211Z" fill="#F5CD00"/>
<path d="M182.725 194.596C178.34 196.899 175.409 202.644 173.438 210.373C181.022 206.255 189.004 201.917 197.171 197.475L197.195 196.584C197.195 196.584 197.269 193.837 198.573 192.352C199.456 193.473 199.662 195.212 199.709 196.095C203.167 194.214 206.651 192.318 210.151 190.414C210.164 190.174 210.189 189.905 210.235 189.613C210.381 188.634 210.787 187.464 211.521 186.749C211.967 187.505 212.201 188.408 212.366 189.208C229.731 179.755 247.324 170.163 263.193 161.489C263.195 161.464 263.195 161.439 263.196 161.414C263.196 161.414 263.241 160.386 263.531 159.104C263.813 157.821 264.367 156.298 265.195 155.334C265.609 156.535 265.694 158.075 265.732 159.327C265.739 159.6 265.741 159.856 265.743 160.095C275.454 154.785 284.462 149.85 292.301 145.541L292.39 145.029C292.39 145.029 293.489 138.636 295.342 135.318C295.791 137.956 295.38 141.898 295.097 144.004C296.235 143.378 297.348 142.765 298.429 142.17L298.538 141.288C298.538 141.288 299.084 136.863 300.64 134.573C301.325 136.442 301.236 139.248 301.131 140.681C307.355 137.248 312.445 134.425 316.066 132.392C312.696 129.707 309.275 127.111 305.813 124.599C280.103 139.48 204.222 183.301 182.725 194.596Z" fill="#F49600"/>
<path d="M86.6472 241.167C78.359 246.107 70.7214 250.587 63.8038 254.348C63.7337 254.935 63.4839 256.087 62.5695 256.82C62.1093 256.451 61.8197 255.974 61.6339 255.517C52.2363 260.525 44.2574 264.076 37.9116 265.448C42.2858 268.49 48.9117 271.302 56.6041 268.565C70.416 263.649 106.203 243.426 114.232 238.85C114.265 234.565 114.226 228.743 113.276 226.945C109.467 227.565 96.8691 235.075 86.6472 241.167Z" fill="#F49600"/>
<path d="M340.284 111.579C267.349 51.0884 170.958 30.1162 143.152 25.1296C142.413 24.9975 141.676 24.9332 140.949 24.9332C135.965 24.9332 131.454 27.9486 129.507 32.4977C135.906 32.8841 142.288 33.5544 148.609 34.6161C148.609 34.6161 150.267 34.8655 152.958 35.4079C155.652 35.9268 159.377 36.7584 163.502 37.8772C171.775 40.0444 181.528 43.7355 188.079 47.1407C181.044 44.9039 171.211 41.8593 162.961 40.0225C158.848 39.0694 155.159 38.3261 152.493 37.853C149.832 37.3564 148.197 37.1107 148.197 37.1107C141.758 36.0294 135.255 35.3568 128.737 34.9836C128.723 35.0551 128.702 35.1237 128.689 35.1959C128.101 38.4718 128.824 41.7806 130.726 44.5125C132.627 47.2445 135.478 49.0726 138.754 49.6604C165.044 54.3752 256.126 74.1578 324.376 130.762C326.608 132.613 329.429 133.632 332.321 133.632C336.047 133.632 339.546 131.989 341.921 129.125C342.064 128.952 342.19 128.768 342.323 128.589C336.902 123.484 331.302 118.567 325.479 113.924C325.479 113.924 324.062 112.795 321.738 110.945C319.412 109.099 316.142 106.582 312.426 103.815C305.027 98.2328 295.68 91.9121 289.088 87.1646C296.601 90.2535 306.574 95.8419 314.339 101.103C318.237 103.709 321.625 106.166 324.02 107.99C326.426 109.8 327.849 110.963 327.849 110.963C333.476 115.449 338.893 120.192 344.148 125.108C344.688 123.489 344.899 121.764 344.736 120.014C344.427 116.699 342.846 113.703 340.284 111.579ZM266.022 78.9722C259.606 76.2437 250.699 72.4561 240.722 68.2132C230.754 63.959 221.601 60.053 214.937 57.2086C208.254 54.3953 204.067 52.633 204.067 52.633C204.067 52.633 208.432 53.6879 215.32 55.8086C222.207 57.9228 231.602 61.1627 241.605 65.4476C251.61 69.7268 260.314 74.2127 266.509 77.6055C272.703 81.0035 276.404 83.2961 276.404 83.2961C276.404 83.2961 272.464 81.6553 266.022 78.9722Z" fill="#F2C673"/>
<path d="M72.875 240.059L73.3299 240.036C73.9435 240.004 75.0377 239.946 76.1334 239.849C78.6364 238.374 81.0508 236.935 83.3191 235.583C85.0726 234.538 86.7255 233.555 88.3019 232.621C88.4382 232.385 88.5691 232.144 88.6725 231.879C89.1872 230.566 89.2156 229.124 88.7512 227.923C87.7789 225.408 84.8811 223.592 81.8509 223.592C81.8377 223.592 81.8241 223.592 81.8108 223.592C78.9104 223.608 75.8318 225.147 73.5748 227.71C71.4485 230.124 70.1408 233.221 69.8932 236.429C69.7948 237.7 69.9409 238.613 70.3259 239.144C70.7736 239.76 71.7766 240.115 72.875 240.059ZM78.2727 227.707C78.5819 227.107 78.9475 226.521 79.4638 226.086C79.8377 225.768 81.1318 225.037 81.1927 226.003C81.2298 226.593 79.8877 227.892 79.5342 228.373C79.3832 228.578 79.2265 228.789 79.0085 228.922C78.7908 229.056 78.4945 229.093 78.2859 228.946C78.1012 228.815 78.0274 228.568 78.0482 228.342C78.069 228.118 78.1693 227.908 78.2727 227.707ZM77.3563 230.592C77.9275 231.116 77.3393 231.904 76.7621 232.106C76.6206 232.155 76.4548 232.156 76.3299 232.074C76.1474 231.953 76.1069 231.705 76.1035 231.487C76.0941 230.846 76.6762 229.968 77.3563 230.592Z" fill="#E53722"/>
<path d="M115.495 148.298C114.674 148.02 113.749 147.886 112.772 147.886C110.028 147.886 106.859 148.941 104.309 150.818H104.309C100.819 153.386 98.3513 157.008 97.3623 161.018C96.941 162.724 96.6503 165.202 97.6533 167.321C98.9792 170.121 102.642 172.045 106.378 171.847C109.907 171.679 113.519 169.798 116.04 166.814C119.183 163.094 120.582 156.927 119.292 152.472C118.677 150.349 117.4 148.945 115.495 148.298ZM113.969 163.488C113.545 163.451 113.202 163.082 113.09 162.671C112.979 162.26 113.061 161.82 113.204 161.418C113.536 160.485 114.928 158.991 115.422 160.565C115.702 161.456 115.163 163.59 113.969 163.488ZM114.196 155.435C113.836 154.931 113.5 154.41 113.192 153.874C112.21 152.17 115.394 153.442 115.909 154.276C116.695 155.55 115.152 156.77 114.196 155.435Z" fill="#E53722"/>
<path d="M295.135 117.193L293.527 118.053C293.527 118.053 289.534 120.183 286.506 120.588C286.328 120.615 286.154 120.634 285.983 120.645C286.074 120.528 286.173 120.411 286.275 120.293C288.285 117.984 292.335 115.823 292.335 115.823L292.724 115.615C240.141 81.4638 181.471 65.3288 151.093 58.743L147.91 63.2054C147.91 63.2054 143.595 69.2575 139.659 73.4095C138.993 74.1173 138.334 74.7683 137.713 75.3247C137.956 74.7494 138.24 74.1362 138.561 73.5041C141.158 68.315 145.851 61.7369 145.851 61.7369L148.398 58.1677C146.294 57.7249 144.352 57.335 142.577 56.9906C138.58 63.1032 134.667 69.1288 130.833 75.056C105.08 114.9 83.1238 150.391 66.2431 179.292C67.4542 179.731 68.4383 180.946 68.8055 182.226C69.2104 183.524 69.2142 184.955 68.8849 186.317C68.7335 186.949 68.5821 187.494 68.5367 187.933C68.4837 188.35 68.5594 188.698 68.6654 188.895C68.7828 189.057 68.7676 189.073 69.0288 189.126C69.2824 189.167 69.7441 189.084 70.2021 188.925C70.6563 188.77 71.2619 188.49 71.928 188.3C72.5942 188.111 73.4382 187.99 74.2633 188.229C75.0846 188.475 75.6637 188.974 76.0611 189.402C76.4699 189.841 76.7613 190.25 77.0452 190.579C77.6091 191.26 78.0936 191.571 78.7976 191.548C79.4751 191.518 80.1375 191.188 80.6144 190.783C81.1026 190.375 81.4584 189.913 81.7347 189.531C82.2722 188.747 82.5447 188.3 82.5447 188.3C82.5447 188.3 82.45 188.789 82.151 189.701C81.9921 190.155 81.7725 190.727 81.3373 191.344C80.8945 191.96 80.2207 192.615 79.1761 192.945C78.6576 193.1 78.0179 193.156 77.3858 192.975C76.7613 192.804 76.2125 192.452 75.781 192.1C74.937 191.393 74.2254 190.651 73.7561 190.621C73.3398 190.503 72.5563 190.851 71.364 191.438C70.7168 191.718 69.9826 191.983 69.0212 191.987C68.5481 191.983 67.9955 191.881 67.4845 191.616C66.9773 191.362 66.5194 190.927 66.2393 190.465C65.6678 189.527 65.5921 188.562 65.6867 187.718C65.7851 186.896 66.0198 186.245 66.1863 185.696C66.5118 184.709 66.5913 183.759 66.455 182.899C66.315 182.048 65.9592 181.423 65.418 181.094C65.3763 181.064 65.312 181.03 65.2514 180.999C40.7971 222.985 27.2888 250.733 28.7498 257.182C29.0526 258.522 29.6392 258.942 30.2259 259.192C36.2212 261.762 53.5523 252.879 69.4375 243.749C68.3778 243.288 67.4732 242.591 66.8184 241.69C65.7965 240.282 65.3915 238.454 65.5731 236.096C65.8911 231.956 67.5791 227.963 70.3232 224.844C73.4306 221.316 77.6092 219.28 81.7877 219.257H81.852C86.6816 219.257 91.1743 222.172 92.7942 226.358C93.1916 227.387 93.3884 228.496 93.3998 229.624C101.197 225.09 106.48 222.285 110.224 221.089C109.19 219.598 107.915 218.156 106.427 217.225C106.083 217.013 106.261 216.483 106.662 216.532C109.822 216.899 115.712 218.228 118.445 222.989C120.855 226.517 120.795 232.735 120.719 240.298C120.689 243.424 120.659 246.868 120.856 250.021C121.071 249.506 121.234 248.92 121.348 248.246C121.56 247.137 121.594 245.721 122.195 244.101C122.502 243.303 122.967 242.489 123.634 241.861C124.307 241.217 125.023 240.88 125.613 240.615C126.809 240.116 127.665 239.798 128.221 239.2C128.781 238.651 128.857 237.799 128.671 237.258C128.493 236.74 128.149 236.505 128.107 236.463C128.157 236.482 128.558 236.516 129.031 236.986C129.504 237.466 129.996 238.522 129.534 239.805C129.114 241.032 127.933 241.974 126.926 242.671C125.855 243.413 125.363 243.92 124.917 245.074C124.466 246.202 124.232 247.595 123.683 248.946C123.164 250.267 122.29 251.508 121.185 252.118C121.136 252.144 121.086 252.167 121.037 252.193C121.404 255.634 122.154 258.488 123.653 259.79C124.156 260.229 125.061 260.774 127.101 260.471C132.865 259.612 132.112 246.145 131.506 235.324C130.878 224.102 130.333 214.413 134.754 209.734C135.488 208.958 136.343 208.36 137.286 207.929C135.53 206.161 133.005 204.367 129.417 203.183C129.319 203.149 129.322 203.016 129.425 203.009C132.963 202.782 145.245 202.8 148.406 213.659C151.002 220.544 151.434 232.8 151.434 250.078C151.434 252.739 151.426 255.517 151.411 258.412C151.347 271.618 151.279 285.27 152.395 295.633C153.913 309.732 156.956 311.261 157.853 311.393C158.103 311.435 158.197 311.405 158.387 311.242C162.44 307.775 162.607 286.481 162.751 267.693C162.785 263.442 162.819 259.12 162.887 254.798C162.879 254.809 162.879 254.816 162.872 254.832C162.607 255.255 162.066 255.706 161.422 255.857C160.786 256.012 160.131 255.929 159.556 255.687C158.981 255.445 158.436 255.025 158.057 254.427C157.702 253.878 157.505 253.238 157.44 252.629C157.3 251.406 157.66 250.229 158.042 249.306C158.436 248.363 158.807 247.64 158.981 246.989C159.159 246.316 159.193 245.842 159.004 245.343C158.803 244.794 158.284 244.132 157.932 243.341C157.584 242.568 157.456 241.8 157.433 241.123C157.399 239.756 157.823 238.757 158.178 238.167C158.542 237.572 158.822 237.33 158.822 237.33C158.822 237.33 158.701 237.667 158.614 238.284C158.527 238.893 158.519 239.809 158.841 240.805C159.007 241.301 159.25 241.811 159.594 242.273C159.912 242.724 160.48 243.182 161.078 244.06C161.373 244.495 161.63 245.104 161.721 245.695C161.823 246.289 161.801 246.879 161.714 247.428C161.539 248.541 161.085 249.502 160.752 250.316C160.4 251.145 160.2 251.8 160.196 252.383C160.196 252.667 160.237 252.901 160.313 253.091C160.374 253.253 160.465 253.371 160.62 253.492C160.764 253.601 160.926 253.658 161.025 253.67C161.127 253.685 161.176 253.704 161.335 253.586C161.627 253.371 161.994 252.655 162.3 252.144C162.546 251.713 162.762 251.319 162.959 250.948C163.371 231.853 164.666 213.129 169.84 200.931V200.927C170.249 199.966 170.68 199.046 171.138 198.168C173.246 193.898 177.625 185.905 182.004 183.285C182.004 183.285 181.221 185.621 180.434 188.456C191.826 182.422 216.792 168.274 241.889 153.911L248.187 139.214C249.039 137.223 250.008 134.964 251.647 133.082C253.66 130.77 256.423 129.521 259.031 129.725C261.533 129.93 263.539 131.572 263.91 133.714C264.167 135.191 263.607 136.47 263.236 137.318L260.7 143.116C272.422 136.379 283.379 130.058 292.07 125.039C294.976 123.359 297.633 121.822 299.976 120.467C298.368 119.358 296.755 118.268 295.135 117.193ZM45.9105 230.873C45.3125 232.557 44.4571 234.851 43.3671 237.353C42.2808 239.851 41.1567 242.107 40.3127 243.761C39.4686 245.411 38.8858 246.444 38.8858 246.444C38.8858 246.444 38.7722 245.229 38.935 243.329C39.0939 241.437 39.5633 238.859 40.6874 236.263C41.8153 233.67 43.3633 231.6 44.6199 230.218C45.8765 228.837 46.8265 228.118 46.8265 228.118C46.8265 228.118 46.5048 229.189 45.9105 230.873ZM109.709 123.692C110.216 121.743 111.125 119.067 112.638 116.319C114.152 113.564 115.962 111.296 117.392 109.767C118.819 108.231 119.841 107.394 119.841 107.394C119.841 107.394 119.395 108.67 118.592 110.574C117.782 112.477 116.658 115.013 115.208 117.644C113.755 120.274 112.23 122.541 111.06 124.207C109.894 125.865 109.062 126.879 109.062 126.879C109.062 126.879 109.202 125.645 109.709 123.692ZM100.727 137.636C101.874 135.743 103.759 134.717 103.759 134.717C103.759 134.717 104.361 137.216 103.214 139.108C102.067 141.004 99.607 141.58 99.607 141.58C99.607 141.58 99.5805 139.532 100.727 137.636ZM106.723 197.948C103.929 197.948 103.933 193.614 106.723 193.614C109.516 193.614 109.512 197.948 106.723 197.948ZM111.87 205.264C109.077 205.264 109.081 200.931 111.87 200.931C114.663 200.931 114.656 205.264 111.87 205.264ZM116.745 196.324C113.952 196.324 113.956 191.991 116.745 191.991C119.538 191.991 119.535 196.324 116.745 196.324ZM119.349 169.611C116.068 173.498 111.295 175.95 106.583 176.177C106.352 176.189 106.121 176.193 105.894 176.193C100.655 176.193 95.7237 173.373 93.7366 169.175C92.5103 166.586 92.3097 163.403 93.1538 159.978C94.3876 154.989 97.4345 150.493 101.742 147.325C105.046 144.895 109.115 143.563 112.797 143.563C114.243 143.563 115.632 143.767 116.889 144.195C120.167 145.308 122.438 147.753 123.456 151.265C125.14 157.086 123.414 164.804 119.349 169.611ZM265.363 114.824C265.825 112.583 267.271 110.926 267.271 110.926C267.271 110.926 268.66 113.136 268.202 115.377C267.74 117.617 265.602 119.044 265.602 119.044C265.602 119.044 264.905 117.065 265.363 114.824ZM178.738 96.2893C178.609 96.2552 178.602 96.278 178.632 96.278C178.662 96.2817 178.659 96.2779 178.613 96.312C178.507 96.3953 178.363 96.5429 178.185 96.8873C178.004 97.228 177.803 97.7238 177.436 98.2802C177.054 98.8517 176.535 99.3362 175.911 99.673C175.275 100.006 174.533 100.192 173.738 100.067C172.985 99.9418 172.326 99.5822 171.831 99.0107C171.32 98.4505 171.093 97.5762 171.18 96.9403C171.248 96.2855 171.475 95.8276 171.657 95.4491C171.85 95.0668 172.005 94.7981 172.133 94.518C172.258 94.2417 172.361 93.9729 172.432 93.7194C172.739 92.7012 172.444 91.9102 172.043 91.4787C171.853 91.263 171.657 91.1532 171.52 91.0888C171.407 91.0396 171.331 91.0169 171.305 91.0131C171.35 91.0056 171.687 90.858 172.308 91.1116C172.633 91.2554 173.023 91.5355 173.341 92.0048C173.663 92.4741 173.856 93.1365 173.871 93.8707C173.901 94.5861 173.708 95.4264 173.507 96.1379C173.42 96.4823 173.367 96.8078 173.398 97.0198C173.435 97.2431 173.511 97.281 173.613 97.3453C173.719 97.4134 173.901 97.474 174.052 97.4626C174.177 97.4513 174.34 97.4021 174.518 97.2809C174.923 97.0122 175.078 96.7057 175.578 95.6421C175.827 95.1425 176.244 94.4839 176.895 94.0259C177.224 93.7913 177.64 93.5869 178.117 93.5074C178.606 93.4204 179.098 93.4998 179.427 93.6096C180.097 93.8405 180.434 94.0562 180.528 94.0865C180.543 94.1319 180.543 94.1508 180.543 94.1698C180.555 94.1546 180.574 94.1395 180.623 94.1357C180.903 94.0146 181.089 93.3674 181.255 92.5574C181.456 91.7436 181.762 91.0321 182.118 90.4454C182.826 89.2683 183.666 88.5719 184.26 88.1745C184.824 87.8073 185.18 87.6749 185.222 87.6597C185.184 87.7014 184.942 87.9777 184.601 88.4735C184.234 89.0147 183.764 89.8474 183.477 90.9337C183.329 91.4749 183.242 92.0767 183.227 92.7126C183.216 93.0305 183.235 93.4279 183.182 93.9275C183.132 94.4044 182.973 95.0668 182.542 95.6383C182.33 95.9222 182.046 96.206 181.652 96.418C181.266 96.6337 180.744 96.7359 180.32 96.7019C179.461 96.6186 178.992 96.3272 178.738 96.2893ZM177.962 123.73C175.169 123.73 175.173 119.396 177.962 119.396C180.755 119.396 180.752 123.73 177.962 123.73ZM160.086 63.9586C162.879 63.9586 162.872 68.2923 160.086 68.2923C157.293 68.2923 157.297 63.9586 160.086 63.9586ZM139.231 134.347C138.686 134.593 138.077 134.695 137.502 134.665C136.347 134.593 135.397 134.089 134.67 133.415C133.921 132.704 133.527 131.871 133.296 131.095C132.857 129.528 133.028 128.2 133.172 127.186C133.334 126.201 133.471 125.403 133.565 124.843C133.645 124.301 133.664 123.995 133.664 123.995C133.664 123.995 133.823 124.267 134.016 124.812C134.212 125.354 134.413 126.186 134.614 127.174C134.818 128.151 135.064 129.282 135.567 130.217C135.813 130.671 136.143 131.088 136.472 131.319C136.82 131.576 137.263 131.746 137.619 131.773C137.971 131.799 138.187 131.731 138.486 131.519C138.766 131.304 139.053 130.853 139.296 130.346C139.534 129.831 139.746 129.267 139.962 128.722C140.196 128.12 140.476 127.594 140.798 127.155C141.43 126.262 142.248 125.789 142.789 125.728C143.308 125.675 143.55 125.815 143.573 125.815C143.535 125.827 143.289 125.895 142.993 126.13C142.679 126.391 142.342 126.909 142.13 127.715C142.024 128.113 141.949 128.575 141.907 129.067C141.858 129.615 141.805 130.259 141.65 130.974C141.487 131.686 141.245 132.526 140.56 133.344C140.215 133.749 139.765 134.104 139.231 134.347ZM150.601 184.084C150.491 184.659 150.321 185.503 149.776 186.48C149.239 187.434 148.228 188.592 146.491 188.993C144.78 189.44 142.195 188.452 141.676 185.893C141.457 184.565 142.017 183.513 142.418 182.873C142.846 182.203 143.209 181.741 143.398 181.359C143.826 180.753 143.474 179.554 143.342 178.471C143.198 177.324 143.607 176.423 144.03 176.071C144.466 175.712 144.746 175.822 144.734 175.799C144.734 175.81 144.523 175.939 144.42 176.295C144.314 176.639 144.341 177.32 144.704 177.994C144.893 178.38 145.174 178.823 145.446 179.436C145.715 180.011 145.98 180.954 145.772 181.912C145.586 182.831 145.166 183.547 144.882 184.133C144.576 184.724 144.47 185.151 144.519 185.367C144.538 185.613 144.746 185.961 145.068 186.204C145.389 186.453 145.719 186.563 146.169 186.575C147.058 186.593 148.005 186.124 148.667 185.556C149.356 184.977 149.852 184.334 150.196 183.887C150.533 183.429 150.726 183.172 150.726 183.172C150.726 183.172 150.703 183.501 150.601 184.084ZM161.006 88.6324C160.082 89.9269 158.678 90.4946 157.751 90.8731C155.926 91.6149 154.117 92.3946 152.308 93.1743C149.235 94.4991 146.055 95.873 142.819 97.0349C142.535 97.1371 142.206 97.2772 141.85 97.4286C140.647 97.9433 138.955 98.6625 137.308 98.6625C136.215 98.6625 135.14 98.3483 134.243 97.4399C132.074 95.2485 132.857 91.1948 134.375 89.2569C136.567 86.4523 141.143 84.5107 145.333 82.9816C147.357 82.2397 150.363 81.2859 153.175 80.9415H153.179C158.659 80.264 160.733 82.3116 161.505 84.1473C162.122 85.6159 161.933 87.3342 161.006 88.6324ZM173.666 168.611C173.322 168.679 173 168.706 172.697 168.706C171.388 168.706 170.472 168.169 169.9 167.665C167.107 165.197 167.47 159.259 168.019 150.266C168.11 148.797 168.201 147.28 168.28 145.728C168.481 141.814 169.064 137.144 171.827 135.384C172.694 134.831 174.128 134.335 176.043 135.111C180.46 136.901 180.301 142.507 180.218 145.516L180.21 145.739C180.169 147.336 180.154 148.934 180.142 150.535C180.123 153.169 180.104 155.898 179.938 158.6C179.911 159.009 179.885 159.414 179.851 159.823C179.461 164.743 177.209 167.949 173.666 168.611ZM185.945 176.011C182.042 178.838 178.144 180.326 178.144 180.326C178.144 180.326 180.297 176.533 184.2 173.71C188.102 170.882 192.273 170.091 192.273 170.091C192.273 170.091 189.847 173.187 185.945 176.011ZM201.781 166.28C200.66 167.177 199.044 167.082 199.044 167.082C199.044 167.082 198.84 164.932 199.964 164.035C201.084 163.135 203.109 163.831 203.109 163.831C203.109 163.831 202.905 165.383 201.781 166.28ZM222.136 145.501C221.689 146.292 221.171 147.51 221.05 149.002C220.981 149.736 221.068 150.546 221.072 151.538C221.072 152.533 220.928 153.729 220.243 154.887C219.903 155.459 219.407 156.027 218.714 156.428C218.044 156.818 217.25 157.045 216.371 156.988C215.501 156.95 214.513 156.466 213.93 155.75C213.325 155.031 213.071 154.24 212.908 153.574C212.749 152.915 212.666 152.264 212.579 151.84C212.492 151.439 212.337 151.034 212.159 150.758C211.973 150.467 211.83 150.372 211.773 150.342C211.727 150.323 211.701 150.289 211.493 150.334C211.3 150.372 211.012 150.478 210.596 150.542C210.187 150.614 209.593 150.565 209.131 150.292C208.646 150.027 208.363 149.592 208.215 149.225C207.927 148.464 207.988 147.825 208.143 147.227C208.332 146.617 208.571 146.269 208.76 145.894C208.949 145.542 209.097 145.232 209.161 144.944C209.313 144.388 209.025 143.786 208.616 143.37C208.211 142.95 207.712 142.707 207.303 142.537C206.886 142.367 206.553 142.268 206.33 142.193C206.107 142.121 205.986 142.083 205.986 142.083C205.986 142.083 206.107 142.079 206.334 142.068C206.565 142.064 206.905 142.053 207.371 142.09C207.829 142.136 208.438 142.219 209.108 142.598C209.434 142.791 209.774 143.048 210.062 143.427C210.35 143.797 210.577 144.339 210.607 144.899C210.664 146.008 210.157 146.954 210.092 147.556C210.07 147.745 210.096 147.98 210.153 148.135C210.3 148.078 210.448 148.021 210.599 147.961C210.864 147.855 211.334 147.707 211.848 147.715C212.908 147.726 213.786 148.366 214.278 148.979C214.789 149.611 215.103 150.285 215.312 151.004C215.508 151.753 215.565 152.272 215.69 152.794C215.804 153.294 215.951 153.68 216.095 153.884C216.254 154.092 216.364 154.172 216.599 154.229C216.833 154.282 217.159 154.251 217.439 154.134C217.708 154.028 217.957 153.839 218.196 153.559C218.661 153.006 218.949 152.219 219.1 151.398C219.263 150.557 219.35 149.604 219.626 148.737C220.168 147.018 221.091 145.891 221.776 145.224C222.435 144.604 222.885 144.335 222.942 144.305C222.9 144.354 222.564 144.759 222.136 145.501ZM217.549 124.843C216.012 125.285 214.362 125.509 212.655 125.509C210.948 125.509 209.184 125.285 207.401 124.843C200.335 123.083 195.869 117.398 196.024 110.362C196.156 104.484 200.274 98.4051 206.277 95.2295C210.796 92.8337 215.671 92.5309 219.642 94.3893C225.402 97.0804 229.282 103.023 229.301 109.173C229.32 116.168 224.267 122.901 217.549 124.843ZM248.331 114.241C248.18 115.619 247.805 117.515 246.957 119.479C246.704 119.998 246.454 120.732 245.458 121.338C244.944 121.622 244.259 121.705 243.683 121.504C243.104 121.311 242.741 120.94 242.506 120.611C242.041 119.971 241.946 119.177 241.976 118.719C241.999 118.234 242.063 117.901 242.082 117.648C242.097 117.375 242.12 117.277 242.06 117.103C242.01 116.944 241.923 116.822 241.855 116.751C241.738 116.61 241.609 116.61 241.586 116.603C241.602 116.58 241.632 116.391 241.984 116.315C242.351 116.232 243.131 116.52 243.498 117.356C243.687 117.735 243.804 118.159 243.941 118.495C243.99 118.624 244.039 118.719 244.092 118.798C244.145 118.696 244.206 118.563 244.285 118.382C245.072 116.557 246.083 115.021 246.904 113.885C246.916 113.866 246.931 113.851 246.942 113.832C247.775 112.697 248.422 112 248.422 112C248.422 112 248.437 112.231 248.43 112.648C248.426 113.034 248.403 113.575 248.331 114.241Z" fill="#F5CD00"/>
<path d="M254.912 135.931C253.723 137.297 252.934 139.139 252.171 140.921L248.138 150.33C250.231 149.131 252.315 147.935 254.385 146.746L259.267 135.584C259.388 135.308 259.672 134.655 259.642 134.456C259.588 134.351 259.193 134.088 258.68 134.047C257.453 133.948 256.012 134.669 254.912 135.931Z" fill="#48A146"/>
<path d="M126.772 34.4208C126.772 34.4208 254.406 50.2487 336.87 129.798C419.334 209.347 336.87 129.798 336.87 129.798L340.225 128.317L341.148 121.646C341.148 121.646 341.24 112.326 330.904 104.122C320.568 95.9173 267.905 61.5147 243.542 53.3042C219.179 45.0937 157.656 19.4276 138.215 21.7147C138.215 21.7147 129.602 26.2888 126.772 34.4208Z" fill="#D59750"/>
<path d="M145.851 61.7369C145.851 61.7369 141.158 68.315 138.561 73.5042C135.972 73.7615 133.376 74.3104 130.833 75.056C134.667 69.1288 138.58 63.1032 142.577 56.9906C144.352 57.335 146.294 57.7249 148.398 58.1677L145.851 61.7369Z" fill="#F49600"/>
<path d="M286.275 120.293C285.476 119.29 284.628 118.359 283.504 117.772C280.772 116.345 277.448 117.443 274.625 118.673C271.801 119.907 268.69 121.292 265.753 120.361C263.017 119.495 261.291 116.883 259.516 114.627C257.74 112.368 255.235 110.134 252.392 110.543C250.897 110.759 249.645 111.667 248.43 112.648C247.919 113.064 247.415 113.492 246.904 113.885C245.72 114.805 244.49 115.554 243.021 115.577C239.558 115.634 237.548 111.679 236.863 108.284C236.178 104.889 236.549 100.509 233.566 98.7495C231.636 95.1197 229.668 91.4332 226.799 88.4924C223.93 85.5477 219.986 83.3903 215.879 83.606C213.014 83.7574 210.35 85.0216 207.636 85.9451C204.922 86.8648 201.856 87.4364 199.252 86.2328C196.084 84.7718 193.931 80.862 190.441 80.9755C188.03 81.055 186.221 83.0799 184.328 84.5825C182.44 86.0852 179.412 87.039 177.818 85.226C177.027 84.329 176.899 83.0535 176.592 81.8991C175.275 76.9673 169.601 73.6706 164.666 74.9689C162.346 75.5782 160.23 77.0392 157.834 77.1111C155.537 77.1831 153.432 75.9681 151.305 75.1051C147.585 73.595 143.637 73.1445 139.659 73.4095C143.595 69.2574 147.91 63.2054 147.91 63.2054L151.093 58.743C181.471 65.3287 240.141 81.4638 292.724 115.615L292.335 115.823C292.335 115.823 288.285 117.984 286.275 120.293Z" fill="#F49600"/>
<path d="M299.976 120.467C297.633 121.822 294.977 123.359 292.07 125.039C291.135 124.831 290.249 124.449 289.466 123.866C288.285 122.996 287.414 121.762 286.506 120.588C289.534 120.183 293.527 118.052 293.527 118.052L295.135 117.193C296.755 118.268 298.368 119.358 299.976 120.467Z" fill="#F49600"/>
<path d="M170.408 104.251C168.754 104.686 167.803 106.568 167.916 108.275C168.028 109.983 168.958 111.523 169.978 112.897C170.159 113.141 170.352 113.389 170.618 113.535C171.295 113.904 172.131 113.477 172.708 112.966C173.284 112.455 173.835 111.818 174.596 111.695C175.994 111.469 176.959 113.045 177.379 114.398C177.798 115.751 178.343 117.391 179.731 117.673C180.791 117.889 181.856 117.096 182.292 116.105C182.727 115.114 182.674 113.982 182.555 112.906C182.259 110.252 183.26 109.034 183.732 106.631C184.045 105.031 183.653 104.537 181.935 104.393C180.049 104.235 178.49 105.588 176.65 105.577C174.504 105.566 172.596 103.676 170.408 104.251Z" fill="#F49600"/>
<path d="M262.318 136.334C263.579 137.141 264.401 138.596 264.441 140.093C264.48 141.59 263.737 143.087 262.52 143.959C262 144.332 261.374 144.6 260.736 144.549C260.099 144.498 259.468 144.064 259.33 143.44C259.181 142.767 259.608 142.108 260.06 141.588C260.512 141.067 261.036 140.542 261.14 139.86" fill="#F49600"/>
<path d="M211.086 155.914C210.662 156.589 211 157.54 211.636 158.02C212.272 158.5 213.111 158.611 213.908 158.623C214.513 158.632 215.273 158.693 215.482 159.26C215.621 159.636 215.424 160.047 215.208 160.384C214.549 161.416 213.654 162.296 212.612 162.939C211.648 163.534 210.31 163.89 209.446 163.156C208.633 162.466 208.693 161.195 208.985 160.169C209.1 159.766 209.241 159.362 209.243 158.943C209.244 158.524 209.074 158.075 208.707 157.872C207.707 157.321 206.982 157.715 206.66 156.35C206.477 155.571 206.59 154.64 207.353 154.229C208.196 153.774 209.081 154.376 209.901 154.561C210.931 154.793 211.882 154.644 211.086 155.914Z" fill="#F49600"/>
<path d="M133.37 130.623C133.614 131.478 133.653 132.378 133.825 133.25C133.997 134.123 134.334 135.013 135.024 135.574C135.463 135.932 136.011 136.127 136.558 136.276C137.089 136.42 137.662 136.525 138.183 136.348C138.93 136.094 139.377 135.33 139.633 134.584C139.889 133.837 140.03 133.034 140.467 132.377C138.916 133.578 136.52 133.52 135.03 132.244" fill="#F49600"/>
<path d="M158.387 89.1093C158.779 90.6827 158.218 92.4548 156.992 93.5157C156.207 94.1943 155.214 94.5736 154.244 94.9396C152.788 95.4888 151.331 96.0383 149.875 96.5875C148.689 97.0353 147.502 97.483 146.338 97.9876C144.155 98.9345 142.055 100.083 140.124 101.473C138.817 102.414 137.432 103.519 135.823 103.45C134.483 103.393 133.248 102.431 132.783 101.173C132.318 99.9137 132.603 98.4293 133.432 97.374C134.261 96.3188 135.588 95.6985 136.929 95.6462" fill="#F49600"/>
<path d="M213.953 123.162C213.893 125.004 215.363 126.678 217.131 127.199C218.899 127.72 220.85 127.241 222.42 126.275C223.99 125.309 225.233 123.898 226.363 122.441C227.597 120.851 228.757 119.108 229.083 117.121C229.409 115.135 228.696 112.854 226.933 111.882C227.028 113.388 226.502 114.635 225.67 115.894C224.838 117.152 223.587 118.13 222.165 118.633" fill="#F49600"/>
<path d="M177.815 169.29C177.605 169.569 177.388 169.866 177.347 170.212C177.309 170.54 177.438 170.87 177.636 171.134C178.349 172.086 179.851 172.141 180.866 171.519C181.881 170.897 182.488 169.784 182.903 168.668C183.348 167.473 183.928 164.84 181.843 164.993C180.12 165.12 178.733 168.07 177.815 169.29Z" fill="#F49600"/>
<path d="M185.255 160.414C185.349 161.088 185.658 161.763 186.219 162.147C186.999 162.681 188.153 162.5 188.804 161.814C189.454 161.129 189.595 160.041 189.233 159.168C188.897 158.361 187.496 156.867 186.515 156.917C185.107 156.989 185.118 159.426 185.255 160.414Z" fill="#F49600"/>
<path d="M173.95 192.942C173.95 192.942 163.803 200.166 160.775 218.334C157.747 236.501 158.504 277.378 158.504 282.866C158.504 288.354 159.198 315.101 156.296 314.975C153.394 314.849 159.45 314.218 161.974 310.181C164.497 306.144 165.885 287.219 165.885 287.219L168.408 223.592L169.67 208.619" fill="#F49600"/>
<path d="M137.286 207.929C137.286 207.929 128.13 208.871 127.468 219.658C126.805 230.445 132.462 262.173 126.332 263.753C120.203 265.332 133.524 263.469 134.564 254.953C135.605 246.437 133.618 222.592 133.618 222.592L138.349 213.129" fill="#F49600"/>
<path d="M93.7598 180.242C92.8688 179.433 91.4082 179.584 90.4105 180.258C89.4128 180.932 88.7697 182.004 88.1585 183.042C87.643 183.917 87.1203 184.809 86.886 185.797C86.6517 186.785 86.7448 187.903 87.3723 188.702C87.8262 189.28 88.5177 189.646 88.9253 190.258C89.9476 191.792 88.7239 193.773 88.4779 195.6C88.2667 197.169 88.8685 198.826 90.0384 199.894C91.208 200.961 92.9131 201.41 94.4566 201.056C96.4951 198.146 94.209 193.695 96.1806 190.739C97.2222 189.177 99.1453 188.522 100.877 187.797C102.432 187.145 104.326 186.111 104.786 184.34C105.214 182.693 104.319 181.173 102.612 181.533C100.939 181.885 99.6366 183.25 97.8539 183.388C95.2256 183.591 95.2945 181.637 93.7598 180.242Z" fill="#F49600"/>
<path d="M143.414 187.756C142.508 186.941 142.526 185.508 142.858 184.335C143.191 183.162 143.769 182.025 143.746 180.806C143.713 179.096 142.523 177.658 141.878 176.073C141.144 174.27 141.146 172.129 142.102 170.433C143.057 168.737 145.023 167.595 146.955 167.829C148.402 169.697 146.977 172.483 147.66 174.745C147.982 175.811 148.751 176.675 149.501 177.498C151.169 179.325 152.836 182.511 151.391 184.961C150.15 187.065 145.659 189.777 143.414 187.756Z" fill="#F49600"/>
<path d="M136.986 115.205C136.737 116.694 136.486 118.212 136.709 119.705C136.932 121.197 137.71 122.688 139.049 123.384C139.647 121.793 140.265 120.168 141.361 118.869C142.457 117.571 144.145 116.64 145.824 116.904C146.84 117.064 147.739 117.631 148.691 118.023C149.643 118.414 150.79 118.613 151.659 118.062C152.511 117.523 152.834 116.406 152.746 115.402C152.659 114.397 152.24 113.458 151.907 112.506C151.239 110.596 150.907 108.549 151.125 106.537C151.218 105.685 151.396 104.767 150.984 104.015C150.419 102.983 148.938 102.777 147.864 103.26C146.322 103.953 145.588 105.507 144.513 106.703C143.56 107.762 142.774 107.867 141.485 108.23C138.257 109.141 137.504 112.255 136.986 115.205Z" fill="#F49600"/>
<path d="M101.762 119.396C101.762 119.396 29.4386 244.165 31.7096 253.959C31.7096 253.959 29.2494 258.895 37.1345 256.435C45.0196 253.975 69.1802 242.841 69.1802 242.841L71.8296 243.977C71.8296 243.977 33.3182 267.632 26.5053 260.819C19.6925 254.007 54.3244 192.596 54.3244 192.596L75.6145 159.195L82.9005 144.15" fill="#FBEB99"/>
<path d="M135.507 112.963C135.561 114.38 136.421 115.739 137.679 116.394C138.76 116.958 138.084 115.281 137.987 114.927C137.855 114.45 137.927 113.941 137.796 113.473C137.53 112.521 135.444 111.282 135.507 112.963Z" fill="#FBEB99"/>
<path d="M97.4409 167.799C97.4409 167.799 111.315 175.69 119.77 159.226C119.77 159.226 118.445 172.852 108.605 173.293C98.7653 173.735 94.9175 167.799 94.9175 167.799" fill="#FBEB99"/>
<path d="M70.8834 239.844C70.8834 239.844 69.0541 236.027 73.9113 229.041C78.7685 222.055 88.0415 222.749 88.0415 222.749C88.0415 222.749 80.5977 219.784 74.7311 224.894C68.8645 230.004 67.9815 238.772 68.2968 238.961" fill="#FBEB99"/>
<path d="M199.192 110.927C199.192 110.927 201.958 119.55 213.16 119.785C224.362 120.02 225.781 105.543 225.781 105.543C225.781 105.543 226.443 125.414 209.695 122.386C192.947 119.358 197.772 110.926 197.772 110.926" fill="#FBEB99"/>
<path d="M334.534 107.962C295.886 74.584 250.624 52.9479 212.78 39.2784L207.691 37.4692L210.794 41.2471V42.3107C210.954 40.8097 214.222 39.445 212.78 39.2784C211.333 39.1076 212.017 38.1909 211.857 39.6915L207.691 37.4692C177.432 26.9146 152.52 21.5362 140.547 19.3003C130.574 17.4456 121.002 24.3746 119.213 34.7596C117.536 44.4948 123.281 53.859 132.22 56.5304C119.473 76.8802 92.464 120.45 68.4989 162.084C19.3632 247.448 21.5688 257.597 22.399 261.417C23.0806 264.558 24.8416 266.845 27.4911 268.029C27.5788 268.068 27.6734 268.096 27.7626 268.133C30.0269 270.765 38.1349 279.168 49.3801 279.168C51.9826 279.168 54.7532 278.717 57.6573 277.64C70.3094 272.951 99.8076 255.85 111.382 249.029C111.49 256.7 112.288 263.826 116.395 267.551C118.601 269.551 121.432 270.303 124.805 269.779C135.945 268.047 135.223 252.208 134.463 238.044L140.823 233.961C141.223 241.86 141.184 251.28 141.138 261.181C140.968 297.367 141.665 319.462 152.758 321.178C153.125 321.235 153.488 321.263 153.845 321.263C155.483 321.263 157.005 320.67 158.298 319.517C164.125 314.325 164.526 298.375 164.733 270.63C164.855 254.244 164.999 235.667 167.18 221.102C248.986 174.858 297.626 147.134 312.293 138.39C315.363 140.617 319.036 141.83 322.793 141.83C328.286 141.83 333.445 139.308 336.948 134.909C340.081 130.975 341.556 126.005 341.101 120.915C340.645 115.825 338.312 111.225 334.534 107.962ZM111.402 241.468C103.619 246.086 68.9318 266.496 55.5442 271.459C48.0884 274.222 41.6657 271.383 37.4258 268.313C43.5763 266.928 51.3102 263.345 60.4194 258.289C60.5999 258.751 60.8802 259.233 61.3263 259.605C62.2127 258.865 62.4548 257.702 62.5227 257.11C69.2279 253.314 76.6309 248.793 84.6645 243.806C94.5724 237.657 106.783 230.078 110.475 229.452C111.396 231.267 111.434 237.143 111.402 241.468ZM68.4255 239.024C68.6655 235.786 69.9334 232.66 71.994 230.223C74.1817 227.637 77.1657 226.084 79.977 226.068C79.9899 226.068 80.0031 226.068 80.0159 226.068C82.9534 226.068 85.7618 227.9 86.7042 230.439C87.1544 231.651 87.1269 233.106 86.6279 234.432C86.5278 234.699 86.4005 234.942 86.2688 235.181C84.7408 236.123 83.1387 237.115 81.439 238.17C79.2407 239.534 76.9001 240.987 74.474 242.476C73.412 242.574 72.351 242.632 71.7567 242.665L71.3157 242.688C70.2511 242.743 69.2789 242.386 68.8449 241.764C68.4718 241.228 68.3302 240.307 68.4255 239.024ZM134.116 230.558C133.925 224.38 134.12 218.522 135.873 216.591C136.131 216.306 136.482 216.043 137.305 216.043C137.325 216.051 139.174 216.893 140.263 226.613L134.116 230.558ZM166.559 200.407C166.116 201.292 165.697 202.22 165.302 203.19L165.301 203.194C160.288 215.509 159.031 234.405 158.634 253.679C158.441 254.052 158.232 254.45 157.993 254.885C157.697 255.401 157.34 256.123 157.057 256.343C156.905 256.458 156.857 256.44 156.759 256.426C156.664 256.414 156.506 256.354 156.365 256.245C156.216 256.124 156.128 256.005 156.069 255.839C155.996 255.648 155.954 255.412 155.955 255.126C155.957 254.538 156.151 253.876 156.492 253.041C156.817 252.218 157.255 251.249 157.425 250.125C157.51 249.57 157.531 248.976 157.433 248.375C157.345 247.78 157.093 247.164 156.809 246.725C156.228 245.838 155.677 245.378 155.372 244.922C155.037 244.456 154.801 243.94 154.641 243.441C154.329 242.434 154.338 241.513 154.421 240.897C154.505 240.275 154.622 239.934 154.622 239.934C154.622 239.934 154.352 240.178 153.998 240.778C153.656 241.373 153.243 242.382 153.275 243.762C153.298 244.444 153.422 245.219 153.761 246C154.101 246.8 154.606 247.468 154.799 248.021C154.98 248.524 154.949 249.003 154.777 249.684C154.607 250.339 154.247 251.071 153.867 252.02C153.495 252.951 153.148 254.141 153.285 255.376C153.348 255.991 153.535 256.636 153.882 257.19C154.248 257.791 154.778 258.218 155.334 258.46C155.891 258.706 156.525 258.789 157.142 258.633C157.768 258.48 158.291 258.025 158.547 257.596C158.554 257.584 158.557 257.574 158.564 257.562C158.498 261.927 158.465 266.29 158.432 270.579C158.291 289.541 158.131 311.032 154.201 314.533C154.016 314.698 153.926 314.726 153.684 314.687C152.814 314.553 149.864 313.008 148.393 298.777C147.311 288.319 147.377 274.539 147.439 261.213C147.542 239.298 147.432 224.06 144.527 216.043H144.528C141.465 205.081 129.56 205.063 126.129 205.294C126.029 205.301 126.027 205.434 126.122 205.467C129.6 206.662 132.047 208.473 133.747 210.26C132.834 210.694 132.006 211.298 131.295 212.082C127.01 216.801 127.536 226.584 128.145 237.91C128.732 248.83 129.463 262.421 123.877 263.289C121.898 263.596 121.021 263.045 120.534 262.603C119.082 261.286 118.356 258.406 117.998 254.935C118.046 254.909 118.095 254.887 118.142 254.859C119.212 254.243 120.059 252.991 120.563 251.658C121.093 250.292 121.323 248.886 121.757 247.751C122.191 246.585 122.668 246.073 123.706 245.323C124.682 244.621 125.826 243.669 126.233 242.432C126.682 241.137 126.204 240.072 125.745 239.585C125.249 239.07 124.828 239.073 124.846 239.057C124.827 239.059 125.21 239.29 125.396 239.861C125.578 240.407 125.502 241.268 124.961 241.821C124.422 242.423 123.591 242.747 122.433 243.248C121.859 243.515 121.167 243.858 120.516 244.506C119.868 245.141 119.416 245.962 119.119 246.768C118.539 248.401 118.503 249.832 118.299 250.949C118.187 251.629 118.031 252.222 117.821 252.741C117.63 249.561 117.66 246.085 117.69 242.928C117.764 235.295 117.823 229.02 115.484 225.459C112.836 220.654 107.128 219.313 104.064 218.941C103.674 218.893 103.504 219.426 103.837 219.642C105.28 220.581 106.515 222.036 107.516 223.541C103.888 224.748 98.7675 227.578 91.2112 232.156C91.1976 231.018 91.0065 229.896 90.6216 228.86C89.0525 224.633 84.6971 221.693 80.0159 221.693C79.9954 221.693 79.9745 221.693 79.9539 221.693C75.9034 221.716 71.8528 223.772 68.8408 227.332C66.1814 230.477 64.5463 234.509 64.2363 238.687C64.0598 241.067 64.4553 242.914 65.4444 244.334C66.0787 245.244 66.957 245.946 67.9827 246.414C52.5865 255.626 35.7863 264.594 29.9759 262C29.4061 261.745 28.8378 261.323 28.544 259.97C27.1293 253.46 40.2217 225.457 63.9245 183.077C63.9824 183.11 64.0474 183.144 64.0885 183.174C64.6094 183.508 64.955 184.135 65.0929 184.996C65.225 185.864 65.1469 186.822 64.831 187.821C64.671 188.373 64.4436 189.033 64.3464 189.86C64.2554 190.712 64.3273 191.686 64.8816 192.632C65.1553 193.098 65.5966 193.539 66.089 193.795C66.5846 194.06 67.1202 194.167 67.5803 194.169C68.5099 194.166 69.2224 193.896 69.8482 193.615C71.0068 193.022 71.7647 192.67 72.1668 192.788C72.6232 192.821 73.3148 193.57 74.1329 194.286C74.5507 194.64 75.0812 194.995 75.6876 195.165C76.2999 195.349 76.9207 195.291 77.4222 195.135C78.4336 194.804 79.0877 194.143 79.5184 193.52C79.937 192.897 80.1498 192.32 80.3054 191.862C80.5967 190.941 80.6884 190.448 80.6884 190.448C80.6884 190.448 80.4242 190.9 79.9003 191.688C79.6333 192.074 79.2906 192.543 78.8152 192.955C78.354 193.361 77.7127 193.695 77.0531 193.725C76.374 193.75 75.9026 193.435 75.3571 192.749C75.0812 192.415 74.7972 192.005 74.4007 191.562C74.0169 191.13 73.4553 190.624 72.6599 190.377C71.8605 190.135 71.0413 190.257 70.3978 190.45C69.7521 190.639 69.1648 190.921 68.722 191.079C68.2795 191.241 67.8327 191.323 67.5854 191.282C67.333 191.228 67.3481 191.213 67.2351 191.048C67.132 190.851 67.0593 190.498 67.11 190.077C67.1522 189.633 67.2996 189.086 67.4456 188.447C67.7648 187.071 67.7619 185.625 67.3686 184.318C67.0138 183.025 66.0607 181.798 64.8868 181.357C83.6849 147.844 108.972 105.557 138.876 57.9156C140.596 58.264 142.476 58.6579 144.518 59.1044L142.049 62.7083C142.049 62.7083 136.326 71.0626 134.161 76.4195C138.321 72.544 144.044 64.1902 144.044 64.1902L147.13 59.6855C176.574 66.3321 233.44 82.6185 284.41 117.086L284.033 117.295C284.033 117.295 279.697 119.705 277.878 122.162C280.851 121.956 285.187 119.546 285.187 119.546L286.746 118.68C288.316 119.763 289.881 120.864 291.438 121.983C282.381 127.439 268.537 135.766 253.371 144.844L255.829 138.992C256.188 138.137 256.73 136.844 256.483 135.356C256.122 133.19 254.176 131.534 251.752 131.329C249.224 131.121 246.547 132.383 244.593 134.717C243.005 136.614 242.068 138.894 241.241 140.904L235.137 155.737C210.81 170.237 186.613 184.516 175.568 190.603C176.334 187.742 177.093 185.387 177.093 185.387C172.848 188.029 168.604 196.096 166.559 200.407ZM252.345 136.102C252.375 136.303 252.099 136.961 251.982 137.24L247.25 148.506C245.243 149.706 243.223 150.913 241.195 152.124L245.104 142.626C245.843 140.828 246.608 138.969 247.761 137.59C248.827 136.317 250.223 135.589 251.412 135.688C251.91 135.73 252.293 135.995 252.345 136.102ZM292.561 142.385C292.662 140.939 292.749 138.107 292.085 136.22C290.576 138.531 290.047 142.998 290.047 142.998L289.942 143.888C288.894 144.489 287.816 145.107 286.712 145.739C286.986 143.613 287.385 139.635 286.949 136.972C285.153 140.321 284.088 146.773 284.088 146.773L284.002 147.29C276.403 151.639 267.673 156.62 258.259 161.98C258.258 161.739 258.256 161.48 258.249 161.205C258.212 159.941 258.129 158.387 257.728 157.174C256.926 158.147 256.389 159.685 256.116 160.979C255.834 162.273 255.791 163.31 255.791 163.31C255.789 163.336 255.79 163.361 255.788 163.386C240.407 172.141 223.354 181.822 206.522 191.363C206.362 190.556 206.135 189.645 205.703 188.882C204.992 189.603 204.598 190.784 204.457 191.773C204.412 192.066 204.388 192.338 204.375 192.58C200.983 194.503 197.605 196.416 194.254 198.314C194.209 197.423 194.008 195.668 193.152 194.537C191.888 196.035 191.817 198.809 191.817 198.809L191.794 199.707C183.877 204.191 176.141 208.569 168.79 212.726C170.701 204.925 173.541 199.126 177.791 196.802C198.628 185.401 272.178 141.173 297.099 126.153C300.455 128.688 303.771 131.309 307.037 134.019C303.528 136.07 298.593 138.921 292.561 142.385ZM334.256 126.666C329.163 121.704 323.912 116.917 318.458 112.39C318.458 112.39 317.078 111.215 314.746 109.389C312.425 107.548 309.141 105.068 305.363 102.438C297.836 97.1277 288.17 91.4872 280.887 88.3696C287.277 93.1608 296.337 99.5408 303.509 105.175C307.11 107.968 310.28 110.508 312.535 112.371C314.787 114.238 316.161 115.378 316.161 115.378C321.805 120.064 327.233 125.027 332.487 130.18C332.358 130.36 332.237 130.546 332.097 130.721C329.796 133.611 326.404 135.269 322.793 135.269C319.989 135.269 317.254 134.241 315.091 132.372C248.938 75.2418 160.654 55.2755 135.172 50.5164C131.996 49.9232 129.232 48.0784 127.39 45.3207C125.546 42.5633 124.846 39.2238 125.415 35.9174C125.428 35.8445 125.448 35.7753 125.462 35.7031C131.78 36.0802 138.082 36.7586 144.324 37.85C144.324 37.85 145.909 38.098 148.488 38.5992C151.072 39.0767 154.648 39.827 158.635 40.7889C166.631 42.6428 176.161 45.7161 182.981 47.9734C176.632 44.5364 167.178 40.8114 159.159 38.6236C155.161 37.4944 151.551 36.6551 148.939 36.1314C146.33 35.5839 144.724 35.3322 144.724 35.3322C138.596 34.261 132.41 33.5841 126.209 33.1941C128.095 28.6031 132.468 25.5592 137.299 25.5592C138.003 25.5592 138.718 25.6237 139.435 25.7574C166.386 30.7908 259.817 51.9582 330.511 113.011C332.994 115.156 334.527 118.179 334.826 121.524C334.984 123.291 334.78 125.032 334.256 126.666Z" fill="#42161A"/>
<path d="M149.151 82.0882H149.151C146.425 82.4385 143.511 83.4023 141.547 84.1491C137.487 85.6929 133.05 87.653 130.927 90.4814C129.457 92.4396 128.698 96.5298 130.8 98.7412C131.669 99.6565 132.709 99.9767 133.768 99.9767C135.364 99.9767 137.005 99.2489 138.173 98.7309C138.517 98.5781 138.835 98.4353 139.112 98.3321C142.248 97.1578 145.329 95.7745 148.308 94.4363C150.062 93.6486 151.815 92.8606 153.583 92.1137C154.484 91.7329 155.845 91.1579 156.739 89.8534C157.638 88.543 157.823 86.8072 157.224 85.3238C156.476 83.4711 154.466 81.4063 149.151 82.0882ZM153.32 87.3122C153.135 87.583 152.455 87.8703 152.003 88.0609C150.206 88.8204 148.425 89.6203 146.644 90.4206C143.724 91.7321 140.705 93.0882 137.692 94.2159C137.349 94.3443 136.953 94.5181 136.526 94.7076C135.861 95.0025 134.353 95.6691 133.765 95.611C133.585 95.1423 133.798 93.7602 134.237 93.175C135.907 90.9509 141.051 88.9946 142.988 88.2577C144.747 87.5892 147.333 86.7289 149.665 86.4294C151.659 86.1742 153.103 86.4053 153.352 87.0203C153.384 87.1002 153.369 87.2415 153.32 87.3122Z" fill="#42161A"/>
<path d="M113.978 145.933C109.658 144.405 103.757 145.675 99.2947 149.093H99.2951C95.122 152.29 92.1661 156.826 90.9716 161.863C90.1528 165.321 90.3476 168.53 91.5351 171.145C93.4619 175.384 98.2422 178.229 103.319 178.229C103.542 178.229 103.765 178.223 103.988 178.213C108.554 177.985 113.18 175.509 116.363 171.586C120.302 166.732 121.975 158.945 120.341 153.07C119.356 149.524 117.155 147.056 113.978 145.933ZM113.155 168.762C110.711 171.774 107.21 173.672 103.79 173.842C100.169 174.042 96.618 172.1 95.3329 169.274C94.3607 167.135 94.6428 164.634 95.0508 162.912C96.0098 158.865 98.4014 155.209 101.784 152.617H101.785C104.256 150.723 107.328 149.658 109.987 149.658C110.935 149.658 111.83 149.794 112.627 150.074C114.473 150.727 115.711 152.144 116.307 154.288C117.557 158.783 116.202 165.007 113.155 168.762Z" fill="#42161A"/>
<path d="M201.711 126.399C203.436 126.846 205.148 127.07 206.801 127.07C208.458 127.07 210.055 126.846 211.547 126.398C218.059 124.441 222.957 117.643 222.936 110.584C222.92 104.375 219.158 98.3785 213.575 95.6616C209.725 93.7874 205.003 94.0945 200.621 96.5089C194.803 99.7143 190.809 105.853 190.683 111.783C190.533 118.884 194.861 124.622 201.711 126.399ZM202.586 100.374C204.47 99.3369 208.173 97.8593 211.797 99.6242C215.871 101.606 218.724 106.118 218.735 110.596C218.749 115.773 215.159 120.759 210.382 122.194C208.109 122.876 205.46 122.862 202.727 122.154C197.781 120.871 194.776 116.934 194.884 111.879C194.975 107.554 198.143 102.824 202.586 100.374Z" fill="#42161A"/>
<path d="M175.089 160.471C175.251 157.743 175.27 154.991 175.289 152.33C175.301 150.715 175.313 149.102 175.355 147.49L175.361 147.266C175.444 144.227 175.597 138.57 171.317 136.764C169.461 135.981 168.07 136.481 167.229 137.037C164.551 138.815 163.987 143.528 163.793 147.481C163.716 149.044 163.626 150.579 163.539 152.06C163.006 161.135 162.655 167.13 165.361 169.619C165.917 170.129 166.804 170.671 168.071 170.671C168.364 170.671 168.678 170.642 169.012 170.577C172.444 169.906 174.629 166.672 175.007 161.703C175.038 161.294 175.065 160.882 175.089 160.471ZM171.162 147.142L171.156 147.371C171.112 149.011 171.1 150.654 171.088 152.297C171.07 154.901 171.051 157.592 170.897 160.202C170.873 160.587 170.848 160.973 170.819 161.358C170.716 162.705 170.26 165.882 168.238 166.277C168.17 166.291 168.122 166.295 168.104 166.302C166.983 165.091 167.433 157.421 167.732 152.327C167.819 150.83 167.91 149.283 167.99 147.658C168.294 141.48 169.441 140.753 169.448 140.737C169.449 140.737 169.45 140.737 169.451 140.737C169.468 140.737 169.557 140.741 169.739 140.818C171.315 141.483 171.219 145.025 171.162 147.142Z" fill="#42161A"/>
<path d="M138.229 130.662C138.268 130.164 138.34 129.698 138.445 129.298C138.65 128.485 138.977 127.962 139.282 127.698C139.592 127.44 139.847 127.38 139.847 127.38C139.845 127.399 139.616 127.234 139.082 127.291C138.556 127.353 137.765 127.831 137.153 128.732C136.841 129.176 136.567 129.707 136.341 130.313C136.131 130.864 135.928 131.433 135.695 131.952C135.462 132.463 135.183 132.921 134.909 133.136C134.621 133.352 134.413 133.421 134.071 133.395C133.727 133.368 133.297 133.194 132.96 132.933C132.641 132.702 132.32 132.28 132.084 131.823C131.595 130.881 131.357 129.739 131.16 128.751C130.965 127.755 130.77 126.915 130.577 126.369C130.39 125.817 130.237 125.542 130.237 125.542C130.237 125.542 130.217 125.851 130.14 126.4C130.049 126.962 129.918 127.771 129.758 128.762C129.62 129.787 129.454 131.129 129.88 132.71C130.104 133.492 130.487 134.334 131.213 135.05C131.916 135.73 132.837 136.238 133.958 136.311C134.515 136.342 135.106 136.239 135.633 135.99C136.151 135.746 136.589 135.385 136.921 134.979C137.586 134.153 137.818 133.303 137.978 132.588C138.128 131.866 138.18 131.217 138.229 130.662Z" fill="#42161A"/>
<path d="M235.305 118.586C235.364 118.762 235.34 118.862 235.325 119.137C235.306 119.395 235.245 119.729 235.225 120.218C235.194 120.679 235.285 121.483 235.737 122.13C235.964 122.463 236.316 122.834 236.877 123.03C237.435 123.233 238.097 123.15 238.597 122.861C239.564 122.251 239.804 121.508 240.05 120.986C240.872 119.003 241.237 117.089 241.381 115.701C241.525 114.31 241.471 113.438 241.471 113.438C241.471 113.438 240.844 114.141 240.037 115.287C239.231 116.439 238.235 118.012 237.459 119.879C237.384 120.063 237.323 120.196 237.274 120.298C237.222 120.218 237.173 120.124 237.127 119.995C236.994 119.652 236.879 119.224 236.697 118.843C236.342 117.999 235.587 117.708 235.228 117.794C234.844 117.875 234.854 118.11 234.842 118.085C234.845 118.092 234.979 118.077 235.106 118.232C235.173 118.305 235.255 118.428 235.305 118.586Z" fill="#42161A"/>
<path d="M169.082 101.394C169.851 101.518 170.571 101.333 171.185 100.997C171.792 100.656 172.293 100.166 172.665 99.588C173.021 99.0292 173.214 98.5283 173.393 98.1853C173.565 97.8354 173.702 97.6879 173.806 97.6012C173.85 97.5672 173.853 97.5706 173.826 97.5672C173.794 97.5699 173.802 97.5439 173.927 97.5787C174.171 97.6199 174.628 97.9141 175.46 97.9962C175.87 98.0306 176.379 97.9274 176.751 97.7086C177.134 97.4954 177.409 97.2104 177.615 96.9231C178.031 96.3482 178.187 95.6797 178.233 95.1953C178.286 94.6918 178.269 94.293 178.277 93.9694C178.292 93.3292 178.379 92.7202 178.521 92.1751C178.799 91.0776 179.256 90.2391 179.61 89.6913C179.971 89.1442 180.216 88.8657 180.216 88.8657C180.216 88.8657 179.863 88.9964 179.279 89.3921C178.705 89.7917 177.889 90.4931 177.201 91.6838C176.856 92.2744 176.561 92.9914 176.367 93.8124C176.203 94.6318 176.024 95.2831 175.753 95.4073C175.705 95.4103 175.686 95.4256 175.677 95.4413C175.676 95.423 175.675 95.4023 175.662 95.3569C175.57 95.3286 175.243 95.1093 174.595 94.8748C174.276 94.7644 173.798 94.6838 173.326 94.772C172.863 94.8534 172.461 95.0589 172.142 95.2957C171.511 95.7572 171.107 96.4242 170.864 96.9269C170.379 97.9993 170.228 98.3087 169.836 98.5822C169.664 98.7037 169.505 98.7533 169.384 98.7648C169.236 98.7778 169.061 98.7136 168.958 98.6468C168.859 98.5807 168.786 98.5429 168.751 98.3163C168.72 98.1039 168.772 97.7762 168.857 97.4262C169.051 96.7088 169.237 95.8627 169.208 95.1376C169.194 94.3976 169.005 93.7303 168.694 93.2543C168.386 92.7817 168.011 92.4987 167.692 92.3554C167.034 92.0765 166.709 92.2775 166.715 92.2511C166.715 92.2511 166.795 92.2683 166.93 92.3329C167.062 92.3978 167.253 92.5082 167.437 92.7256C167.827 93.1611 168.113 93.9587 167.815 94.9859C167.747 95.2427 167.648 95.5127 167.524 95.7935C167.401 96.0758 167.249 96.3463 167.062 96.7333C166.886 97.113 166.669 97.5752 166.601 98.2365C166.516 98.8802 166.737 99.763 167.231 100.329C167.712 100.902 168.35 101.267 169.082 101.394Z" fill="#42161A"/>
<path d="M213.561 150.516C213.294 151.393 213.206 152.354 213.05 153.201C212.903 154.03 212.626 154.826 212.173 155.385C211.943 155.665 211.701 155.859 211.438 155.965C211.166 156.081 210.851 156.115 210.626 156.061C210.399 156.003 210.292 155.922 210.139 155.714C209.996 155.507 209.854 155.116 209.746 154.611C209.625 154.085 209.57 153.562 209.379 152.806C209.177 152.08 208.873 151.401 208.376 150.762C207.898 150.142 207.048 149.496 206.02 149.484C205.523 149.477 205.068 149.627 204.811 149.734C204.664 149.794 204.52 149.852 204.377 149.91C204.324 149.754 204.295 149.517 204.317 149.327C204.382 148.72 204.871 147.764 204.817 146.642C204.787 146.078 204.57 145.531 204.289 145.159C204.009 144.774 203.681 144.515 203.365 144.322C202.716 143.938 202.125 143.856 201.681 143.809C201.231 143.769 200.9 143.783 200.676 143.788C200.456 143.797 200.34 143.802 200.34 143.802C200.34 143.802 200.453 143.84 200.67 143.913C200.886 143.987 201.212 144.089 201.613 144.259C202.009 144.432 202.496 144.676 202.888 145.101C203.285 145.519 203.56 146.127 203.414 146.692C203.355 146.982 203.211 147.292 203.026 147.65C202.843 148.026 202.611 148.377 202.428 148.994C202.277 149.598 202.219 150.244 202.497 151.01C202.642 151.382 202.918 151.819 203.386 152.089C203.836 152.364 204.41 152.412 204.807 152.339C205.209 152.275 205.491 152.169 205.678 152.131C205.876 152.084 205.903 152.117 205.947 152.136C206.001 152.168 206.141 152.261 206.32 152.559C206.492 152.837 206.645 153.244 206.727 153.648C206.813 154.078 206.892 154.735 207.046 155.4C207.204 156.071 207.452 156.871 208.039 157.595C208.602 158.318 209.562 158.807 210.404 158.844C211.256 158.903 212.024 158.672 212.676 158.28C213.345 157.875 213.828 157.3 214.158 156.724C214.82 155.555 214.959 154.348 214.961 153.344C214.958 152.343 214.872 151.527 214.939 150.784C215.056 149.278 215.558 148.048 215.992 147.252C216.434 146.451 216.775 146.042 216.775 146.042C216.775 146.042 216.325 146.303 215.645 146.974C214.98 147.645 214.082 148.782 213.561 150.516ZM204.428 150.022C204.422 150.014 204.417 149.998 204.412 149.987C204.422 149.994 204.434 149.997 204.442 150.007C204.495 150.059 204.467 150.089 204.428 150.022Z" fill="#42161A"/>
<path d="M144.78 187.677C144.139 188.252 143.22 188.724 142.359 188.706C141.921 188.693 141.6 188.581 141.289 188.329C140.98 188.084 140.778 187.733 140.758 187.487C140.712 187.269 140.815 186.839 141.111 186.239C141.384 185.648 141.793 184.929 141.972 183.998C142.174 183.031 141.916 182.083 141.656 181.499C141.391 180.881 141.123 180.435 140.939 180.046C140.587 179.366 140.559 178.678 140.664 178.33C140.763 177.965 140.976 177.836 140.967 177.828C140.978 177.852 140.706 177.743 140.285 178.102C139.874 178.459 139.478 179.368 139.617 180.527C139.745 181.62 140.086 182.83 139.672 183.44C139.489 183.825 139.137 184.293 138.723 184.969C138.335 185.616 137.789 186.679 138.002 188.017C138.505 190.598 141.01 191.595 142.669 191.147C144.355 190.741 145.332 189.574 145.855 188.611C146.38 187.624 146.547 186.772 146.655 186.19C146.754 185.605 146.774 185.272 146.774 185.272C146.774 185.272 146.589 185.531 146.259 185.994C145.928 186.444 145.446 187.095 144.78 187.677Z" fill="#42161A"/>
<path d="M112.347 119.133C113.754 116.479 114.844 113.92 115.628 111.997C116.407 110.076 116.838 108.788 116.838 108.788C116.838 108.788 115.849 109.633 114.465 111.183C113.08 112.729 111.324 115.017 109.857 117.795C108.389 120.571 107.509 123.269 107.018 125.237C106.527 127.21 106.39 128.456 106.39 128.456C106.39 128.456 107.196 127.429 108.328 125.756C109.462 124.078 110.942 121.787 112.347 119.133Z" fill="#42161A"/>
<path d="M100.724 140.799C101.835 138.886 101.253 136.368 101.253 136.368C101.253 136.368 99.425 137.401 98.3134 139.313C97.2018 141.226 97.2275 143.294 97.2275 143.294C97.2275 143.294 99.6121 142.712 100.724 140.799Z" fill="#42161A"/>
<path d="M43.9274 232.757C42.7116 234.15 41.21 236.241 40.1182 238.858C39.0272 241.475 38.5723 244.079 38.4171 245.99C38.259 247.904 38.3701 249.134 38.3701 249.134C38.3701 249.134 38.9369 248.09 39.7547 246.424C40.5713 244.754 41.6594 242.479 42.7149 239.955C43.7689 237.431 44.5984 235.115 45.1776 233.415C45.7569 231.717 46.0655 230.634 46.0655 230.634C46.0655 230.634 45.1454 231.36 43.9274 232.757Z" fill="#42161A"/>
<path d="M260.642 116.846C261.089 114.583 259.741 112.354 259.741 112.354C259.741 112.354 258.339 114.026 257.893 116.288C257.446 118.551 258.125 120.547 258.125 120.547C258.125 120.547 260.196 119.108 260.642 116.846Z" fill="#42161A"/>
<path d="M173.175 125.276C175.878 125.276 175.882 120.901 173.175 120.901C170.472 120.901 170.467 125.276 173.175 125.276Z" fill="#42161A"/>
<path d="M109.112 203.193C106.409 203.193 106.404 207.568 109.112 207.568C111.815 207.568 111.819 203.193 109.112 203.193Z" fill="#42161A"/>
<path d="M104.123 195.812C101.42 195.812 101.416 200.186 104.123 200.186C106.826 200.186 106.831 195.812 104.123 195.812Z" fill="#42161A"/>
<path d="M113.838 194.172C111.135 194.172 111.13 198.546 113.838 198.546C116.541 198.546 116.545 194.172 113.838 194.172Z" fill="#42161A"/>
<path d="M155.846 64.9474C153.143 64.9474 153.139 69.3218 155.846 69.3218C158.549 69.3218 158.554 64.9474 155.846 64.9474Z" fill="#42161A"/>
<path d="M187.046 172.067C187.046 172.067 183.002 172.867 179.22 175.719C175.439 178.572 173.352 182.397 173.352 182.397C173.352 182.397 177.13 180.898 180.912 178.045C184.693 175.193 187.046 172.067 187.046 172.067Z" fill="#42161A"/>
<path d="M194.5 165.955C193.412 166.861 193.611 169.03 193.611 169.03C193.611 169.03 195.176 169.127 196.264 168.221C197.351 167.315 197.549 165.75 197.549 165.75C197.549 165.75 195.587 165.049 194.5 165.955Z" fill="#42161A"/>
<path d="M234.863 66.4514C225.167 62.1266 216.06 58.857 209.385 56.7227C202.709 54.5823 198.478 53.5176 198.478 53.5176C198.478 53.5176 202.536 55.2962 209.014 58.1357C215.474 61.0065 224.345 64.9489 234.007 69.2427C243.678 73.5255 252.311 77.3479 258.53 80.1018C264.774 82.8095 268.593 84.4659 268.593 84.4659C268.593 84.4659 265.005 82.1521 259.001 78.722C252.997 75.298 244.561 70.7704 234.863 66.4514Z" fill="#42161A"/>
<path d="M205.007 221.737C203.348 220.444 201.361 219.772 199.036 219.67C196.71 219.566 194.167 220.059 191.411 221.078C187.014 222.702 182.558 224.067 178.027 225.113C177.625 225.206 177.398 225.645 177.547 226.045C181.543 236.717 185.539 247.389 189.535 258.061C189.661 258.397 190.012 258.582 190.346 258.486C192.683 257.813 195 257.048 197.297 256.2C197.652 256.068 197.836 255.656 197.704 255.288C196.829 252.853 195.954 250.419 195.08 247.984C194.948 247.618 195.13 247.215 195.484 247.085C196.965 246.542 198.438 245.965 199.904 245.358C202.516 244.274 204.592 242.745 206.167 240.852C207.74 238.958 208.745 236.822 209.191 234.496C209.636 232.167 209.47 229.775 208.676 227.331C207.882 224.887 206.666 223.03 205.007 221.737ZM200.258 235.395C199.678 236.595 198.543 237.556 196.837 238.231C195.502 238.759 194.161 239.261 192.815 239.736C192.469 239.858 192.092 239.669 191.964 239.313C190.963 236.529 189.963 233.744 188.962 230.959C188.828 230.586 189.02 230.175 189.384 230.053C190.748 229.595 192.107 229.11 193.458 228.599C195.203 227.941 196.656 227.827 197.823 228.304C198.988 228.778 199.827 229.771 200.347 231.299C200.867 232.825 200.836 234.195 200.258 235.395Z" fill="#42161A"/>
<path d="M220.489 207.662C220.362 207.233 219.887 207.039 219.513 207.261C217.18 208.651 214.837 209.998 212.482 211.293C212.194 211.452 212.057 211.801 212.158 212.124C215.36 222.431 218.563 232.737 221.766 243.044C221.899 243.472 222.381 243.664 222.753 243.434C224.934 242.085 227.104 240.687 229.264 239.249C229.52 239.079 229.636 238.751 229.547 238.449C226.528 228.186 223.508 217.924 220.489 207.662Z" fill="#42161A"/>
<path d="M259.075 210.39C258.966 209.904 258.418 209.689 258.029 209.979C254.124 212.88 250.222 215.791 246.311 218.659C245.783 219.046 245.079 218.51 245.274 217.869C248.046 208.759 250.988 199.635 254.115 190.568C252.027 188.863 252.086 188.911 249.997 187.206C242.862 192.127 235.727 197.047 228.524 201.674C228.267 201.838 228.149 202.16 228.233 202.461C228.767 204.382 229.301 206.303 229.836 208.224C229.961 208.674 230.466 208.876 230.846 208.625C234.682 206.099 238.5 203.49 242.308 200.842C242.842 200.471 243.518 201.011 243.312 201.644C240.211 211.206 237.3 220.761 234.561 230.236C236.401 231.639 236.397 231.636 238.238 233.04C245.563 227.797 252.815 222.236 260.076 216.721C260.295 216.555 260.397 216.269 260.335 215.995C259.915 214.127 259.495 212.258 259.075 210.39Z" fill="#42161A"/>
<path d="M288.287 189.943C288.21 189.452 287.679 189.194 287.27 189.451C283.315 191.941 279.393 194.574 275.492 197.296C274.948 197.676 274.252 197.107 274.483 196.468C277.78 187.334 281.297 178.361 285.054 169.642C283.344 168.011 283.395 168.059 281.685 166.429C274.134 170.876 266.691 175.786 259.278 180.833C259.044 180.993 258.928 181.288 258.989 181.573C259.385 183.434 259.781 185.295 260.178 187.156C260.28 187.637 260.814 187.859 261.208 187.586C264.961 184.978 268.723 182.407 272.503 179.918C273.055 179.554 273.726 180.14 273.484 180.771C270.388 188.818 267.468 197.003 264.71 205.264C267.372 207.333 267.261 207.246 269.923 209.315C276.176 204.682 282.464 200.203 288.841 196.107C289.072 195.959 289.193 195.681 289.149 195.403C288.861 193.583 288.574 191.763 288.287 189.943Z" fill="#42161A"/>
<path d="M309.405 153.565C309.232 153.299 308.905 153.187 308.613 153.294C306.053 154.242 303.514 155.279 300.992 156.392C300.799 156.478 300.653 156.651 300.598 156.862C297.591 168.419 294.914 180.298 292.549 192.42C292.433 193.014 293.048 193.47 293.551 193.165C295.653 191.891 297.766 190.664 299.892 189.492C300.068 189.395 300.192 189.221 300.232 189.017C300.652 186.853 301.082 184.699 301.522 182.553C301.565 182.341 301.7 182.16 301.887 182.065C305.586 180.169 309.325 178.447 313.114 176.937C313.423 176.814 313.774 176.943 313.942 177.239C314.698 178.564 315.448 179.891 316.193 181.221C316.355 181.511 316.691 181.637 316.994 181.523C319.352 180.64 321.731 179.845 324.132 179.146C324.561 179.021 324.759 178.508 324.529 178.111C319.717 169.804 314.676 161.624 309.405 153.565ZM309.862 171.67C308.028 172.427 306.205 173.231 304.392 174.078C303.885 174.315 303.333 173.848 303.458 173.283C304.081 170.446 304.723 167.627 305.383 164.826C305.525 164.223 306.302 164.097 306.618 164.624C307.822 166.631 309.012 168.642 310.19 170.658C310.406 171.029 310.25 171.51 309.862 171.67Z" fill="#42161A"/>
<path d="M205.988 105.538C206.305 105.668 206.653 105.436 206.882 105.174C207.165 104.848 207.921 103.706 207.367 103.378C206.871 103.086 206.02 103.93 205.806 104.306C205.691 104.51 205.61 104.744 205.627 104.979C205.645 105.215 205.777 105.45 205.988 105.538Z" fill="#42161A"/>
<path d="M206.354 119.45C206.027 119.743 205.982 120.294 206.203 120.679C206.424 121.064 206.861 121.281 207.292 121.296C207.9 121.316 209.02 120.849 209.239 120.187C209.525 119.32 208.157 119.307 207.636 119.242C207.193 119.187 206.692 119.148 206.354 119.45Z" fill="#42161A"/>
<path d="M110.394 155.7C110.694 156.241 111.019 156.767 111.368 157.275C112.294 158.623 113.79 157.392 113.028 156.107C112.528 155.263 109.442 153.98 110.394 155.7Z" fill="#42161A"/>
<path d="M110.406 163.315C110.268 163.72 110.188 164.165 110.296 164.58C110.404 164.995 110.737 165.367 111.148 165.404C112.305 165.507 112.827 163.353 112.556 162.454C112.077 160.865 110.728 162.373 110.406 163.315Z" fill="#42161A"/>
<path d="M76.5608 231.472C76.7626 231.62 77.0498 231.582 77.2612 231.448C77.4721 231.313 77.624 231.101 77.7707 230.893C78.1134 230.408 79.4143 229.097 79.3783 228.501C79.3193 227.527 78.065 228.264 77.7025 228.585C77.2021 229.024 76.8477 229.615 76.548 230.221C76.4475 230.424 76.3506 230.636 76.3304 230.863C76.3102 231.09 76.3818 231.339 76.5608 231.472Z" fill="#42161A"/>
<path d="M74.6645 234.628C74.7856 234.711 74.9466 234.71 75.0835 234.661C75.6429 234.457 76.2127 233.662 75.6594 233.133C75.0002 232.503 74.4359 233.389 74.4451 234.036C74.4484 234.256 74.4873 234.507 74.6645 234.628Z" fill="#42161A"/>
</g>
<defs>
<clipPath id="clip0">
<rect width="379" height="379" fill="white"/>
</clipPath>
</defs>
</svg>
